<?xml version="1.0" standalone="no"?>
<!DOCTYPE svg PUBLIC "-//W3C//DTD SVG 20010904//EN"
 "http://www.w3.org/TR/2001/REC-SVG-20010904/DTD/svg10.dtd">
<svg version="1.0" xmlns="http://www.w3.org/2000/svg"
 width="920.000000pt" height="997.000000pt" viewBox="0 0 920.000000 997.000000"
 preserveAspectRatio="xMidYMid meet">
<metadata>
Created by potrace 1.16, written by Peter Selinger 2001-2019
</metadata>
<g transform="translate(0.000000,997.000000) scale(0.100000,-0.100000)"
fill="red" stroke="none">
<path d="M2595 9944 c-28 -31 -33 -63 -22 -164 4 -41 7 -116 5 -166 -3 -82 -7
-98 -41 -165 -48 -95 -130 -206 -163 -221 -21 -10 -43 -7 -120 12 l-94 24 -27
-21 -28 -20 0 -154 c0 -152 0 -155 -31 -220 -53 -112 -169 -212 -349 -301
-185 -92 -250 -92 -502 6 -95 36 -183 66 -196 66 -29 0 -57 -29 -57 -58 0 -34
53 -86 176 -172 210 -148 279 -222 354 -375 91 -186 210 -577 210 -687 0 -69
-11 -73 -217 -73 l-171 0 -44 -32 c-106 -79 -155 -111 -189 -122 -133 -43
-627 -65 -861 -37 -174 20 -184 20 -208 -4 -49 -49 -22 -87 144 -200 147 -100
273 -208 432 -373 162 -167 223 -252 254 -354 29 -98 61 -142 190 -267 61 -58
110 -110 110 -115 0 -11 -85 -83 -185 -155 -124 -90 -175 -144 -175 -183 0
-24 7 -37 26 -49 22 -15 47 -16 212 -10 l187 7 160 -55 c271 -92 475 -190 520
-251 49 -66 10 -161 -115 -279 -80 -75 -90 -81 -225 -131 -114 -42 -138 -61
-138 -106 0 -38 18 -53 87 -73 176 -49 369 -70 646 -70 243 1 320 7 600 46
133 18 207 23 380 22 252 -1 300 -9 300 -53 0 -60 -103 -184 -540 -651 -362
-387 -457 -524 -566 -821 -59 -162 -106 -261 -247 -529 -169 -319 -542 -1006
-789 -1453 -325 -588 -398 -745 -398 -855 0 -72 21 -87 119 -87 66 1 87 6 136
30 33 17 67 41 77 55 12 17 26 77 42 185 18 127 31 178 60 250 57 136 289 569
608 1130 330 581 411 732 623 1155 92 184 185 366 207 403 91 157 253 351 528
631 268 274 412 396 469 396 82 0 201 -238 351 -705 61 -188 102 -295 181
-467 113 -247 137 -342 164 -653 22 -249 34 -347 47 -362 6 -7 23 -13 39 -13
46 0 61 34 69 163 4 62 14 128 22 148 9 19 55 85 104 145 48 60 132 174 187
254 184 268 235 320 318 320 71 0 236 -88 509 -271 224 -150 297 -230 486
-534 71 -113 144 -224 163 -246 59 -70 109 -81 159 -36 27 25 37 58 62 212 27
168 44 218 87 262 65 64 241 128 483 174 218 41 472 10 656 -81 94 -46 163
-95 289 -205 186 -162 233 -187 275 -145 18 18 21 29 16 61 -23 145 -131 336
-402 715 -280 391 -334 485 -464 809 -122 303 -161 364 -313 490 l-98 80 133
7 c163 9 234 25 367 83 351 152 582 206 826 191 60 -4 197 -18 303 -31 286
-37 362 -32 370 23 6 38 -21 66 -150 153 -234 157 -477 339 -511 382 -72 88
-82 119 -81 247 2 137 30 277 74 367 38 76 93 126 235 214 209 127 254 158
271 184 41 62 6 132 -105 215 -78 58 -111 102 -111 147 0 56 60 237 115 348
30 61 92 162 137 225 180 254 189 270 172 319 -20 57 -87 36 -274 -84 -120
-77 -160 -89 -305 -88 -201 1 -466 49 -585 105 -25 12 -86 62 -139 115 -92 92
-94 93 -87 132 3 21 15 58 26 82 24 53 26 102 4 119 -22 19 -93 16 -134 -5
-19 -10 -125 -74 -235 -143 -110 -69 -222 -135 -250 -147 -27 -12 -111 -32
-185 -45 -189 -31 -235 -55 -542 -277 -49 -35 -88 -60 -88 -57 0 7 85 139 250
389 70 105 152 232 184 283 74 117 144 182 340 317 165 114 276 203 309 247
26 35 24 84 -3 113 -13 14 -48 30 -83 39 -219 56 -226 58 -267 93 -49 42 -73
88 -134 255 -78 218 -112 371 -126 581 -14 196 -32 227 -131 227 -58 0 -89
-16 -302 -154 -106 -68 -230 -143 -277 -165 -151 -73 -316 -107 -482 -99 -113
5 -175 25 -217 71 -22 24 -23 33 -19 94 7 85 -1 114 -34 133 -25 13 -31 13
-71 -7 -66 -32 -246 -200 -286 -267 -19 -32 -67 -133 -106 -224 -140 -326
-180 -393 -280 -469 -96 -73 -311 -143 -442 -143 -67 0 -75 2 -109 32 -20 18
-43 46 -50 63 -11 26 -9 35 12 75 13 25 24 56 24 70 -1 35 -31 98 -95 196
l-55 85 10 210 c6 116 7 222 4 237 -18 76 -67 69 -175 -24 -94 -81 -126 -87
-300 -55 -143 27 -254 57 -316 87 -72 34 -207 170 -330 329 -109 142 -172 205
-204 205 -11 0 -31 -12 -44 -26z"/>
</g>
</svg>
